<?xml version="1.0" encoding="UTF-8" standalone="no"?>
<!DOCTYPE svg PUBLIC "-//W3C//DTD SVG 1.1//EN"
 "http://www.w3.org/Graphics/SVG/1.1/DTD/svg11.dtd">
<!-- Generated by graphviz version 2.40.1 (20161225.0304)
 -->
<!-- Title: G Pages: 1 -->
<svg width="1168pt" height="2018pt"
 viewBox="0.00 0.00 1167.97 2018.00" xmlns="http://www.w3.org/2000/svg" xmlns:xlink="http://www.w3.org/1999/xlink">
<g id="graph0" class="graph" transform="scale(1 1) rotate(0) translate(4 2014)">
<title>G</title>
<polygon fill="#ffffff" stroke="transparent" points="-4,4 -4,-2014 1163.9746,-2014 1163.9746,4 -4,4"/>
<g id="clust1" class="cluster">
<title>cluster_Global</title>
<polygon fill="none" stroke="#000000" points="8,-8 8,-2002 1151.9746,-2002 1151.9746,-8 8,-8"/>
<text text-anchor="middle" x="579.9873" y="-1989.2" font-family="Times,serif" font-size="11.00" fill="#c0c0c0">Global</text>
</g>
<g id="clust2" class="cluster">
<title>cluster_\Yaseek</title>
<polygon fill="none" stroke="#000000" points="156.2918,-16 156.2918,-1876 1143.9746,-1876 1143.9746,-16 156.2918,-16"/>
<text text-anchor="middle" x="650.1332" y="-1863.2" font-family="Times,serif" font-size="11.00" fill="#c0c0c0">Yaseek</text>
</g>
<g id="clust3" class="cluster">
<title>cluster_\Yaseek\YNO</title>
<polygon fill="none" stroke="#000000" points="164.2918,-24 164.2918,-1848 1135.9746,-1848 1135.9746,-24 164.2918,-24"/>
<text text-anchor="middle" x="650.1332" y="-1835.2" font-family="Times,serif" font-size="11.00" fill="#c0c0c0">YNO</text>
</g>
<g id="clust4" class="cluster">
<title>cluster_\Yaseek\YNO\App</title>
<polygon fill="none" stroke="#000000" points="832.4746,-32 832.4746,-456 1127.9746,-456 1127.9746,-32 832.4746,-32"/>
<text text-anchor="middle" x="980.2246" y="-443.2" font-family="Times,serif" font-size="11.00" fill="#c0c0c0">App</text>
</g>
<g id="clust5" class="cluster">
<title>cluster_\Yaseek\YNO\App\Actor</title>
<polygon fill="none" stroke="#000000" points="1034.4746,-302 1034.4746,-428 1114.4746,-428 1114.4746,-302 1034.4746,-302"/>
<text text-anchor="middle" x="1074.4746" y="-415.2" font-family="Times,serif" font-size="11.00" fill="#c0c0c0">Actor</text>
</g>
<g id="clust6" class="cluster">
<title>cluster_\Yaseek\YNO\Core</title>
<polygon fill="none" stroke="#000000" points="172.2918,-464 172.2918,-1820 980.9746,-1820 980.9746,-464 172.2918,-464"/>
<text text-anchor="middle" x="576.6332" y="-1807.2" font-family="Times,serif" font-size="11.00" fill="#c0c0c0">Core</text>
</g>
<g id="clust7" class="cluster">
<title>cluster_\Yaseek\YNO\Core\Config</title>
<polygon fill="none" stroke="#000000" points="524.1332,-1422 524.1332,-1792 972.9746,-1792 972.9746,-1422 524.1332,-1422"/>
<text text-anchor="middle" x="748.5539" y="-1779.2" font-family="Times,serif" font-size="11.00" fill="#c0c0c0">Config</text>
</g>
<g id="clust8" class="cluster">
<title>cluster_\Yaseek\YNO\Core\Config\Exception</title>
<polygon fill="none" stroke="#000000" points="532.1332,-1584 532.1332,-1764 964.9746,-1764 964.9746,-1584 532.1332,-1584"/>
<text text-anchor="middle" x="748.5539" y="-1751.2" font-family="Times,serif" font-size="11.00" fill="#c0c0c0">Exception</text>
</g>
<g id="clust9" class="cluster">
<title>cluster_\Yaseek\YNO\Core\Exception</title>
<polygon fill="none" stroke="#000000" points="321.2918,-1028 321.2918,-1370 964.9746,-1370 964.9746,-1028 321.2918,-1028"/>
<text text-anchor="middle" x="643.1332" y="-1357.2" font-family="Times,serif" font-size="11.00" fill="#c0c0c0">Exception</text>
</g>
<g id="clust10" class="cluster">
<title>cluster_\Yaseek\YNO\Core\Helper</title>
<polygon fill="none" stroke="#000000" points="827.4746,-894 827.4746,-1020 907.4746,-1020 907.4746,-894 827.4746,-894"/>
<text text-anchor="middle" x="867.4746" y="-1007.2" font-family="Times,serif" font-size="11.00" fill="#c0c0c0">Helper</text>
</g>
<g id="clust11" class="cluster">
<title>cluster_\Yaseek\YNO\Core\Logger</title>
<polygon fill="none" stroke="#000000" points="827.4746,-814 827.4746,-886 907.4746,-886 907.4746,-814 827.4746,-814"/>
<text text-anchor="middle" x="867.4746" y="-873.2" font-family="Times,serif" font-size="11.00" fill="#c0c0c0">Logger</text>
</g>
<g id="clust12" class="cluster">
<title>cluster_\Yaseek\YNO\Core\Session</title>
<polygon fill="none" stroke="#000000" points="823.9746,-472 823.9746,-544 910.9746,-544 910.9746,-472 823.9746,-472"/>
<text text-anchor="middle" x="867.4746" y="-531.2" font-family="Times,serif" font-size="11.00" fill="#c0c0c0">Session</text>
</g>
<!-- \\Yaseek\\YNO\\App\\Actor\\Phantom -->
<g id="node1" class="node">
<title>\\Yaseek\\YNO\\App\\Actor\\Phantom</title>
<polygon fill="none" stroke="#000000" points="1106.4746,-346 1042.4746,-346 1042.4746,-310 1106.4746,-310 1106.4746,-346"/>
<text text-anchor="middle" x="1074.4746" y="-325.2" font-family="Courier,monospace" font-size="11.00" fill="#000000">Phantom</text>
</g>
<!-- \\Yaseek\\YNO\\App\\Actor -->
<g id="node3" class="node">
<title>\\Yaseek\\YNO\\App\\Actor</title>
<polygon fill="none" stroke="#000000" points="894.4746,-346 840.4746,-346 840.4746,-310 894.4746,-310 894.4746,-346"/>
<text text-anchor="middle" x="867.4746" y="-325.2" font-family="Courier,monospace" font-size="11.00" fill="#000000">Actor</text>
</g>
<!-- \\Yaseek\\YNO\\App\\Actor\\Phantom&#45;&gt;\\Yaseek\\YNO\\App\\Actor -->
<g id="edge1" class="edge">
<title>\\Yaseek\\YNO\\App\\Actor\\Phantom&#45;&gt;\\Yaseek\\YNO\\App\\Actor</title>
<path fill="none" stroke="#000000" d="M1042.1309,-328C1004.9462,-328 944.0114,-328 904.8346,-328"/>
<polygon fill="none" stroke="#000000" points="904.6426,-324.5001 894.6426,-328 904.6426,-331.5001 904.6426,-324.5001"/>
</g>
<!-- \\Yaseek\\YNO\\App\\Actor\\Session -->
<g id="node2" class="node">
<title>\\Yaseek\\YNO\\App\\Actor\\Session</title>
<polygon fill="none" stroke="#000000" points="1106.4746,-400 1042.4746,-400 1042.4746,-364 1106.4746,-364 1106.4746,-400"/>
<text text-anchor="middle" x="1074.4746" y="-379.2" font-family="Courier,monospace" font-size="11.00" fill="#000000">Session</text>
</g>
<!-- \\Yaseek\\YNO\\Core\\Session -->
<g id="node38" class="node">
<title>\\Yaseek\\YNO\\Core\\Session</title>
<polygon fill="none" stroke="#000000" points="899.4746,-588 835.4746,-588 835.4746,-552 899.4746,-552 899.4746,-588"/>
<text text-anchor="middle" x="867.4746" y="-567.2" font-family="Courier,monospace" font-size="11.00" fill="#000000">Session</text>
</g>
<!-- \\Yaseek\\YNO\\App\\Actor\\Session&#45;&gt;\\Yaseek\\YNO\\Core\\Session -->
<g id="edge2" class="edge">
<title>\\Yaseek\\YNO\\App\\Actor\\Session&#45;&gt;\\Yaseek\\YNO\\Core\\Session</title>
<path fill="none" stroke="#000000" d="M1069.7603,-400.1589C1059.7437,-434.8841 1032.892,-510.5703 980.9746,-548 960.5019,-562.7597 932.758,-568.3278 909.825,-570.1728"/>
<polygon fill="none" stroke="#000000" points="909.4442,-566.6892 899.6702,-570.7781 909.8608,-573.6767 909.4442,-566.6892"/>
</g>
<!-- \\Yaseek\\YNO\\App\\Api -->
<g id="node4" class="node">
<title>\\Yaseek\\YNO\\App\\Api</title>
<polygon fill="none" stroke="#000000" points="1101.4746,-292 1047.4746,-292 1047.4746,-256 1101.4746,-256 1101.4746,-292"/>
<text text-anchor="middle" x="1074.4746" y="-271.2" font-family="Courier,monospace" font-size="11.00" fill="#000000">Api</text>
</g>
<!-- \\Yaseek\\YNO\\App\\Application -->
<g id="node5" class="node">
<title>\\Yaseek\\YNO\\App\\Application</title>
<polygon fill="none" stroke="#000000" points="1119.9746,-238 1028.9746,-238 1028.9746,-202 1119.9746,-202 1119.9746,-238"/>
<text text-anchor="middle" x="1074.4746" y="-217.2" font-family="Courier,monospace" font-size="11.00" fill="#000000">Application</text>
</g>
<!-- \\Yaseek\\YNO\\App\\Config -->
<g id="node6" class="node">
<title>\\Yaseek\\YNO\\App\\Config</title>
<polygon fill="none" stroke="#000000" points="1102.9746,-184 1045.9746,-184 1045.9746,-148 1102.9746,-148 1102.9746,-184"/>
<text text-anchor="middle" x="1074.4746" y="-163.2" font-family="Courier,monospace" font-size="11.00" fill="#000000">Config</text>
</g>
<!-- \\Yaseek\\YNO\\Core\\Config -->
<g id="node33" class="node">
<title>\\Yaseek\\YNO\\Core\\Config</title>
<polygon fill="none" stroke="#000000" points="637.6332,-1414 580.6332,-1414 580.6332,-1378 637.6332,-1378 637.6332,-1414"/>
<text text-anchor="middle" x="609.1332" y="-1393.2" font-family="Courier,monospace" font-size="11.00" fill="#000000">Config</text>
</g>
<!-- \\Yaseek\\YNO\\App\\Config&#45;&gt;\\Yaseek\\YNO\\Core\\Config -->
<g id="edge3" class="edge">
<title>\\Yaseek\\YNO\\App\\Config&#45;&gt;\\Yaseek\\YNO\\Core\\Config</title>
<path fill="none" stroke="#000000" d="M1045.9296,-178.5168C1039.626,-182.3915 1033.4896,-187.2023 1028.9746,-193 982.8356,-252.2478 1027.9276,-296.3951 980.9746,-355 916.4117,-435.585 833.7903,-381.1269 777.9746,-468 668.8021,-637.919 838.1378,-1221.278 705.9746,-1374 691.8516,-1390.3199 668.3852,-1395.9398 648.0898,-1397.4218"/>
<polygon fill="none" stroke="#000000" points="647.6756,-1393.936 637.832,-1397.8543 647.9706,-1400.9298 647.6756,-1393.936"/>
</g>
<!-- \\Yaseek\\YNO\\App\\Message -->
<g id="node7" class="node">
<title>\\Yaseek\\YNO\\App\\Message</title>
<polygon fill="none" stroke="#000000" points="1106.4746,-130 1042.4746,-130 1042.4746,-94 1106.4746,-94 1106.4746,-130"/>
<text text-anchor="middle" x="1074.4746" y="-109.2" font-family="Courier,monospace" font-size="11.00" fill="#000000">Message</text>
</g>
<!-- \\Yaseek\\YNO\\App\\Token -->
<g id="node8" class="node">
<title>\\Yaseek\\YNO\\App\\Token</title>
<polygon fill="none" stroke="#000000" points="1101.4746,-76 1047.4746,-76 1047.4746,-40 1101.4746,-40 1101.4746,-76"/>
<text text-anchor="middle" x="1074.4746" y="-55.2" font-family="Courier,monospace" font-size="11.00" fill="#000000">Token</text>
</g>
<!-- \\Yaseek\\YNO\\Core\\Config\\Exception\\DomainException -->
<g id="node9" class="node">
<title>\\Yaseek\\YNO\\Core\\Config\\Exception\\DomainException</title>
<polygon fill="none" stroke="#000000" points="926.4746,-1736 808.4746,-1736 808.4746,-1700 926.4746,-1700 926.4746,-1736"/>
<text text-anchor="middle" x="867.4746" y="-1715.2" font-family="Courier,monospace" font-size="11.00" fill="#000000">DomainException</text>
</g>
<!-- \\Yaseek\\YNO\\Core\\Config\\Exception\\ExceptionInterface -->
<g id="node12" class="node">
<title>\\Yaseek\\YNO\\Core\\Config\\Exception\\ExceptionInterface</title>
<polygon fill="none" stroke="#000000" points="678.1332,-1682 540.1332,-1682 540.1332,-1646 678.1332,-1646 678.1332,-1682"/>
<text text-anchor="middle" x="609.1332" y="-1661.2" font-family="Courier,monospace" font-size="11.00" fill="#000000">ExceptionInterface</text>
</g>
<!-- \\Yaseek\\YNO\\Core\\Config\\Exception\\DomainException&#45;&gt;\\Yaseek\\YNO\\Core\\Config\\Exception\\ExceptionInterface -->
<g id="edge5" class="edge">
<title>\\Yaseek\\YNO\\Core\\Config\\Exception\\DomainException&#45;&gt;\\Yaseek\\YNO\\Core\\Config\\Exception\\ExceptionInterface</title>
<path fill="none" stroke="#000000" stroke-dasharray="1,5" d="M808.2059,-1705.6113C772.6516,-1698.1795 726.9862,-1688.6343 688.3625,-1680.5609"/>
<polygon fill="none" stroke="#000000" points="688.6935,-1677.0546 678.1889,-1678.4344 687.2612,-1683.9065 688.6935,-1677.0546"/>
</g>
<!-- \\Yaseek\\YNO\\Core\\Exception\\DomainException -->
<g id="node18" class="node">
<title>\\Yaseek\\YNO\\Core\\Exception\\DomainException</title>
<polygon fill="none" stroke="#000000" points="668.1332,-1342 550.1332,-1342 550.1332,-1306 668.1332,-1306 668.1332,-1342"/>
<text text-anchor="middle" x="609.1332" y="-1321.2" font-family="Courier,monospace" font-size="11.00" fill="#000000">DomainException</text>
</g>
<!-- \\Yaseek\\YNO\\Core\\Config\\Exception\\DomainException&#45;&gt;\\Yaseek\\YNO\\Core\\Exception\\DomainException -->
<g id="edge4" class="edge">
<title>\\Yaseek\\YNO\\Core\\Config\\Exception\\DomainException&#45;&gt;\\Yaseek\\YNO\\Core\\Exception\\DomainException</title>
<path fill="none" stroke="#000000" d="M808.3895,-1709.8902C796.99,-1705.8463 786.0886,-1699.8547 777.9746,-1691 672.1514,-1575.516 815.7523,-1457.7317 705.9746,-1346 698.2961,-1338.1848 688.4624,-1332.8939 678.0167,-1329.3557"/>
<polygon fill="none" stroke="#000000" points="678.8728,-1325.9603 668.296,-1326.5769 676.9488,-1332.6907 678.8728,-1325.9603"/>
</g>
<!-- \\Yaseek\\YNO\\Core\\Config\\Exception\\InvalidArgumentException -->
<g id="node10" class="node">
<title>\\Yaseek\\YNO\\Core\\Config\\Exception\\InvalidArgumentException</title>
<polygon fill="none" stroke="#000000" points="956.9746,-1682 777.9746,-1682 777.9746,-1646 956.9746,-1646 956.9746,-1682"/>
<text text-anchor="middle" x="867.4746" y="-1661.2" font-family="Courier,monospace" font-size="11.00" fill="#000000">InvalidArgumentException</text>
</g>
<!-- \\Yaseek\\YNO\\Core\\Config\\Exception\\InvalidArgumentException&#45;&gt;\\Yaseek\\YNO\\Core\\Config\\Exception\\ExceptionInterface -->
<g id="edge7" class="edge">
<title>\\Yaseek\\YNO\\Core\\Config\\Exception\\InvalidArgumentException&#45;&gt;\\Yaseek\\YNO\\Core\\Config\\Exception\\ExceptionInterface</title>
<path fill="none" stroke="#000000" stroke-dasharray="1,5" d="M777.8444,-1664C748.7707,-1664 716.7393,-1664 688.4693,-1664"/>
<polygon fill="none" stroke="#000000" points="688.2367,-1660.5001 678.2367,-1664 688.2366,-1667.5001 688.2367,-1660.5001"/>
</g>
<!-- \\Yaseek\\YNO\\Core\\Exception\\InvalidArgumentException -->
<g id="node19" class="node">
<title>\\Yaseek\\YNO\\Core\\Exception\\InvalidArgumentException</title>
<polygon fill="none" stroke="#000000" points="698.6332,-1288 519.6332,-1288 519.6332,-1252 698.6332,-1252 698.6332,-1288"/>
<text text-anchor="middle" x="609.1332" y="-1267.2" font-family="Courier,monospace" font-size="11.00" fill="#000000">InvalidArgumentException</text>
</g>
<!-- \\Yaseek\\YNO\\Core\\Config\\Exception\\InvalidArgumentException&#45;&gt;\\Yaseek\\YNO\\Core\\Exception\\InvalidArgumentException -->
<g id="edge6" class="edge">
<title>\\Yaseek\\YNO\\Core\\Config\\Exception\\InvalidArgumentException&#45;&gt;\\Yaseek\\YNO\\Core\\Exception\\InvalidArgumentException</title>
<path fill="none" stroke="#000000" d="M788.27,-1645.8604C784.5228,-1643.2829 781.0497,-1640.3459 777.9746,-1637 673.4534,-1523.2728 811.6894,-1409.6186 705.9746,-1297 705.1982,-1296.1728 704.3987,-1295.3703 703.5779,-1294.5916"/>
<polygon fill="none" stroke="#000000" points="705.6418,-1291.7597 695.6597,-1288.2088 701.2487,-1297.2096 705.6418,-1291.7597"/>
</g>
<!-- \\Yaseek\\YNO\\Core\\Config\\Exception\\ParseException -->
<g id="node11" class="node">
<title>\\Yaseek\\YNO\\Core\\Config\\Exception\\ParseException</title>
<polygon fill="none" stroke="#000000" points="922.9746,-1628 811.9746,-1628 811.9746,-1592 922.9746,-1592 922.9746,-1628"/>
<text text-anchor="middle" x="867.4746" y="-1607.2" font-family="Courier,monospace" font-size="11.00" fill="#000000">ParseException</text>
</g>
<!-- \\Yaseek\\YNO\\Core\\Config\\Exception\\ParseException&#45;&gt;\\Yaseek\\YNO\\Core\\Config\\Exception\\ExceptionInterface -->
<g id="edge9" class="edge">
<title>\\Yaseek\\YNO\\Core\\Config\\Exception\\ParseException&#45;&gt;\\Yaseek\\YNO\\Core\\Config\\Exception\\ExceptionInterface</title>
<path fill="none" stroke="#000000" stroke-dasharray="1,5" d="M811.7364,-1621.6507C775.7732,-1629.168 728.4381,-1639.0622 688.5657,-1647.3966"/>
<polygon fill="none" stroke="#000000" points="687.6732,-1644.0074 678.6009,-1649.4795 689.1055,-1650.8593 687.6732,-1644.0074"/>
</g>
<!-- \\Yaseek\\YNO\\Core\\Exception\\RuntimeException -->
<g id="node26" class="node">
<title>\\Yaseek\\YNO\\Core\\Exception\\RuntimeException</title>
<polygon fill="none" stroke="#000000" points="671.6332,-1234 546.6332,-1234 546.6332,-1198 671.6332,-1198 671.6332,-1234"/>
<text text-anchor="middle" x="609.1332" y="-1213.2" font-family="Courier,monospace" font-size="11.00" fill="#000000">RuntimeException</text>
</g>
<!-- \\Yaseek\\YNO\\Core\\Config\\Exception\\ParseException&#45;&gt;\\Yaseek\\YNO\\Core\\Exception\\RuntimeException -->
<g id="edge8" class="edge">
<title>\\Yaseek\\YNO\\Core\\Config\\Exception\\ParseException&#45;&gt;\\Yaseek\\YNO\\Core\\Exception\\RuntimeException</title>
<path fill="none" stroke="#000000" d="M811.804,-1606.2861C799.2413,-1602.9512 786.976,-1597.3248 777.9746,-1588 669.187,-1475.3041 813.0099,-1357.3616 705.9746,-1243 699.1316,-1235.6886 690.4915,-1230.2982 681.2036,-1226.3351"/>
<polygon fill="none" stroke="#000000" points="682.3355,-1223.022 671.7424,-1222.8294 679.9033,-1229.5859 682.3355,-1223.022"/>
</g>
<!-- \\Yaseek\\YNO\\Core\\Config\\Ini -->
<g id="node13" class="node">
<title>\\Yaseek\\YNO\\Core\\Config\\Ini</title>
<polygon fill="none" stroke="#000000" points="894.4746,-1574 840.4746,-1574 840.4746,-1538 894.4746,-1538 894.4746,-1574"/>
<text text-anchor="middle" x="867.4746" y="-1553.2" font-family="Courier,monospace" font-size="11.00" fill="#000000">Ini</text>
</g>
<!-- \\Yaseek\\YNO\\Core\\Config\\Ini&#45;&gt;\\Yaseek\\YNO\\Core\\Config -->
<g id="edge10" class="edge">
<title>\\Yaseek\\YNO\\Core\\Config\\Ini&#45;&gt;\\Yaseek\\YNO\\Core\\Config</title>
<path fill="none" stroke="#000000" d="M840.2206,-1550.5786C821.9413,-1546.2801 797.6958,-1539.2696 777.9746,-1529 721.835,-1499.7659 665.9639,-1450.8809 634.6528,-1421.2212"/>
<polygon fill="none" stroke="#000000" points="636.8794,-1418.5073 627.2363,-1414.1184 632.0377,-1423.5629 636.8794,-1418.5073"/>
</g>
<!-- \\Yaseek\\YNO\\Core\\Config\\Json -->
<g id="node14" class="node">
<title>\\Yaseek\\YNO\\Core\\Config\\Json</title>
<polygon fill="none" stroke="#000000" points="894.4746,-1520 840.4746,-1520 840.4746,-1484 894.4746,-1484 894.4746,-1520"/>
<text text-anchor="middle" x="867.4746" y="-1499.2" font-family="Courier,monospace" font-size="11.00" fill="#000000">Json</text>
</g>
<!-- \\Yaseek\\YNO\\Core\\Config\\Json&#45;&gt;\\Yaseek\\YNO\\Core\\Config -->
<g id="edge11" class="edge">
<title>\\Yaseek\\YNO\\Core\\Config\\Json&#45;&gt;\\Yaseek\\YNO\\Core\\Config</title>
<path fill="none" stroke="#000000" d="M840.1074,-1494.8523C822.2091,-1489.9077 798.4391,-1482.8273 777.9746,-1475 731.8333,-1457.3518 680.6865,-1432.6615 646.9092,-1415.6022"/>
<polygon fill="none" stroke="#000000" points="648.3621,-1412.4146 637.8614,-1411.0051 645.1912,-1418.6553 648.3621,-1412.4146"/>
</g>
<!-- \\Yaseek\\YNO\\Core\\Config\\Serialized -->
<g id="node15" class="node">
<title>\\Yaseek\\YNO\\Core\\Config\\Serialized</title>
<polygon fill="none" stroke="#000000" points="909.4746,-1466 825.4746,-1466 825.4746,-1430 909.4746,-1430 909.4746,-1466"/>
<text text-anchor="middle" x="867.4746" y="-1445.2" font-family="Courier,monospace" font-size="11.00" fill="#000000">Serialized</text>
</g>
<!-- \\Yaseek\\YNO\\Core\\Config\\Serialized&#45;&gt;\\Yaseek\\YNO\\Core\\Config -->
<g id="edge12" class="edge">
<title>\\Yaseek\\YNO\\Core\\Config\\Serialized&#45;&gt;\\Yaseek\\YNO\\Core\\Config</title>
<path fill="none" stroke="#000000" d="M825.3926,-1439.5296C776.2408,-1429.6361 695.5981,-1413.404 647.9117,-1403.8055"/>
<polygon fill="none" stroke="#000000" points="648.4665,-1400.347 637.9725,-1401.8049 647.0852,-1407.2094 648.4665,-1400.347"/>
</g>
<!-- \\Yaseek\\YNO\\Core\\Exception\\BadFunctionCallException -->
<g id="node16" class="node">
<title>\\Yaseek\\YNO\\Core\\Exception\\BadFunctionCallException</title>
<polygon fill="none" stroke="#000000" points="698.6332,-1072 519.6332,-1072 519.6332,-1036 698.6332,-1036 698.6332,-1072"/>
<text text-anchor="middle" x="609.1332" y="-1051.2" font-family="Courier,monospace" font-size="11.00" fill="#000000">BadFunctionCallException</text>
</g>
<!-- \\Yaseek\\YNO\\Core\\Exception\\LogicException -->
<g id="node21" class="node">
<title>\\Yaseek\\YNO\\Core\\Exception\\LogicException</title>
<polygon fill="none" stroke="#000000" points="440.2918,-1184 329.2918,-1184 329.2918,-1148 440.2918,-1148 440.2918,-1184"/>
<text text-anchor="middle" x="384.7918" y="-1163.2" font-family="Courier,monospace" font-size="11.00" fill="#000000">LogicException</text>
</g>
<!-- \\Yaseek\\YNO\\Core\\Exception\\BadFunctionCallException&#45;&gt;\\Yaseek\\YNO\\Core\\Exception\\LogicException -->
<g id="edge13" class="edge">
<title>\\Yaseek\\YNO\\Core\\Exception\\BadFunctionCallException&#45;&gt;\\Yaseek\\YNO\\Core\\Exception\\LogicException</title>
<path fill="none" stroke="#000000" d="M535.0242,-1072.03C527.2225,-1074.7033 519.5106,-1077.6897 512.2918,-1081 476.8782,-1097.2394 440.2579,-1122.7149 415.4003,-1141.5453"/>
<polygon fill="none" stroke="#000000" points="413.2429,-1138.7891 407.4401,-1147.6535 417.5043,-1144.3425 413.2429,-1138.7891"/>
</g>
<!-- \\Yaseek\\YNO\\Core\\Exception\\BadMethodCallException -->
<g id="node17" class="node">
<title>\\Yaseek\\YNO\\Core\\Exception\\BadMethodCallException</title>
<polygon fill="none" stroke="#000000" points="949.9746,-1072 784.9746,-1072 784.9746,-1036 949.9746,-1036 949.9746,-1072"/>
<text text-anchor="middle" x="867.4746" y="-1051.2" font-family="Courier,monospace" font-size="11.00" fill="#000000">BadMethodCallException</text>
</g>
<!-- \\Yaseek\\YNO\\Core\\Exception\\BadMethodCallException&#45;&gt;\\Yaseek\\YNO\\Core\\Exception\\BadFunctionCallException -->
<g id="edge14" class="edge">
<title>\\Yaseek\\YNO\\Core\\Exception\\BadMethodCallException&#45;&gt;\\Yaseek\\YNO\\Core\\Exception\\BadFunctionCallException</title>
<path fill="none" stroke="#000000" d="M784.6678,-1054C760.6707,-1054 734.2121,-1054 709.2756,-1054"/>
<polygon fill="none" stroke="#000000" points="709.0657,-1050.5001 699.0657,-1054 709.0656,-1057.5001 709.0657,-1050.5001"/>
</g>
<!-- \\Yaseek\\YNO\\Core\\Exception\\DomainException&#45;&gt;\\Yaseek\\YNO\\Core\\Exception\\LogicException -->
<g id="edge15" class="edge">
<title>\\Yaseek\\YNO\\Core\\Exception\\DomainException&#45;&gt;\\Yaseek\\YNO\\Core\\Exception\\LogicException</title>
<path fill="none" stroke="#000000" d="M550.0043,-1312.8399C537.0437,-1308.9643 523.7755,-1303.8124 512.2918,-1297 466.5806,-1269.8832 426.1127,-1222.1839 403.5899,-1192.4357"/>
<polygon fill="none" stroke="#000000" points="406.2326,-1190.1241 397.4568,-1184.188 400.6154,-1194.3011 406.2326,-1190.1241"/>
</g>
<!-- \\Yaseek\\YNO\\Core\\Exception\\InvalidArgumentException&#45;&gt;\\Yaseek\\YNO\\Core\\Exception\\LogicException -->
<g id="edge16" class="edge">
<title>\\Yaseek\\YNO\\Core\\Exception\\InvalidArgumentException&#45;&gt;\\Yaseek\\YNO\\Core\\Exception\\LogicException</title>
<path fill="none" stroke="#000000" d="M536.2034,-1251.9838C528.0241,-1249.2829 519.9032,-1246.2865 512.2918,-1243 478.7381,-1228.5122 443.371,-1206.5515 418.4203,-1189.7853"/>
<polygon fill="none" stroke="#000000" points="420.2866,-1186.8219 410.0494,-1184.0923 416.3501,-1192.6101 420.2866,-1186.8219"/>
</g>
<!-- \\Yaseek\\YNO\\Core\\Exception\\LengthException -->
<g id="node20" class="node">
<title>\\Yaseek\\YNO\\Core\\Exception\\LengthException</title>
<polygon fill="none" stroke="#000000" points="668.1332,-1126 550.1332,-1126 550.1332,-1090 668.1332,-1090 668.1332,-1126"/>
<text text-anchor="middle" x="609.1332" y="-1105.2" font-family="Courier,monospace" font-size="11.00" fill="#000000">LengthException</text>
</g>
<!-- \\Yaseek\\YNO\\Core\\Exception\\LengthException&#45;&gt;\\Yaseek\\YNO\\Core\\Exception\\LogicException -->
<g id="edge17" class="edge">
<title>\\Yaseek\\YNO\\Core\\Exception\\LengthException&#45;&gt;\\Yaseek\\YNO\\Core\\Exception\\LogicException</title>
<path fill="none" stroke="#000000" d="M549.8967,-1123.3147C519.3235,-1131.2189 481.9429,-1140.8831 450.4864,-1149.0157"/>
<polygon fill="none" stroke="#000000" points="449.3031,-1145.7065 440.4975,-1151.5982 451.0553,-1152.4836 449.3031,-1145.7065"/>
</g>
<!-- \\Yaseek\\YNO\\Core\\Exception -->
<g id="node35" class="node">
<title>\\Yaseek\\YNO\\Core\\Exception</title>
<polygon fill="none" stroke="#000000" points="257.2918,-1206 180.2918,-1206 180.2918,-1170 257.2918,-1170 257.2918,-1206"/>
<text text-anchor="middle" x="218.7918" y="-1185.2" font-family="Courier,monospace" font-size="11.00" fill="#000000">Exception</text>
</g>
<!-- \\Yaseek\\YNO\\Core\\Exception\\LogicException&#45;&gt;\\Yaseek\\YNO\\Core\\Exception -->
<g id="edge18" class="edge">
<title>\\Yaseek\\YNO\\Core\\Exception\\LogicException&#45;&gt;\\Yaseek\\YNO\\Core\\Exception</title>
<path fill="none" stroke="#000000" d="M329.0544,-1173.3869C309.0945,-1176.0322 286.7682,-1178.9911 267.4537,-1181.5508"/>
<polygon fill="none" stroke="#000000" points="266.8165,-1178.1046 257.363,-1182.8882 267.7362,-1185.0439 266.8165,-1178.1046"/>
</g>
<!-- \\Yaseek\\YNO\\Core\\Exception\\OutOfBoundsException -->
<g id="node22" class="node">
<title>\\Yaseek\\YNO\\Core\\Exception\\OutOfBoundsException</title>
<polygon fill="none" stroke="#000000" points="943.4746,-1180 791.4746,-1180 791.4746,-1144 943.4746,-1144 943.4746,-1180"/>
<text text-anchor="middle" x="867.4746" y="-1159.2" font-family="Courier,monospace" font-size="11.00" fill="#000000">OutOfBoundsException</text>
</g>
<!-- \\Yaseek\\YNO\\Core\\Exception\\OutOfBoundsException&#45;&gt;\\Yaseek\\YNO\\Core\\Exception\\RuntimeException -->
<g id="edge19" class="edge">
<title>\\Yaseek\\YNO\\Core\\Exception\\OutOfBoundsException&#45;&gt;\\Yaseek\\YNO\\Core\\Exception\\RuntimeException</title>
<path fill="none" stroke="#000000" d="M791.361,-1177.9097C756.682,-1185.1585 715.8277,-1193.6981 681.6004,-1200.8525"/>
<polygon fill="none" stroke="#000000" points="680.7428,-1197.456 671.6705,-1202.9281 682.1751,-1204.3079 680.7428,-1197.456"/>
</g>
<!-- \\Yaseek\\YNO\\Core\\Exception\\OutOfRangeException -->
<g id="node23" class="node">
<title>\\Yaseek\\YNO\\Core\\Exception\\OutOfRangeException</title>
<polygon fill="none" stroke="#000000" points="681.6332,-1180 536.6332,-1180 536.6332,-1144 681.6332,-1144 681.6332,-1180"/>
<text text-anchor="middle" x="609.1332" y="-1159.2" font-family="Courier,monospace" font-size="11.00" fill="#000000">OutOfRangeException</text>
</g>
<!-- \\Yaseek\\YNO\\Core\\Exception\\OutOfRangeException&#45;&gt;\\Yaseek\\YNO\\Core\\Exception\\LogicException -->
<g id="edge20" class="edge">
<title>\\Yaseek\\YNO\\Core\\Exception\\OutOfRangeException&#45;&gt;\\Yaseek\\YNO\\Core\\Exception\\LogicException</title>
<path fill="none" stroke="#000000" d="M536.6058,-1163.2932C508.9082,-1163.787 477.5097,-1164.3468 450.4842,-1164.8287"/>
<polygon fill="none" stroke="#000000" points="450.2933,-1161.3315 440.3573,-1165.0093 450.4181,-1168.3303 450.2933,-1161.3315"/>
</g>
<!-- \\Yaseek\\YNO\\Core\\Exception\\OverflowException -->
<g id="node24" class="node">
<title>\\Yaseek\\YNO\\Core\\Exception\\OverflowException</title>
<polygon fill="none" stroke="#000000" points="932.9746,-1126 801.9746,-1126 801.9746,-1090 932.9746,-1090 932.9746,-1126"/>
<text text-anchor="middle" x="867.4746" y="-1105.2" font-family="Courier,monospace" font-size="11.00" fill="#000000">OverflowException</text>
</g>
<!-- \\Yaseek\\YNO\\Core\\Exception\\OverflowException&#45;&gt;\\Yaseek\\YNO\\Core\\Exception\\RuntimeException -->
<g id="edge21" class="edge">
<title>\\Yaseek\\YNO\\Core\\Exception\\OverflowException&#45;&gt;\\Yaseek\\YNO\\Core\\Exception\\RuntimeException</title>
<path fill="none" stroke="#000000" d="M801.8997,-1124.8544C793.6701,-1127.8155 785.5057,-1131.191 777.9746,-1135 742.2802,-1153.0529 741.8575,-1171.3245 705.9746,-1189 698.2389,-1192.8105 689.882,-1196.1559 681.4319,-1199.0738"/>
<polygon fill="none" stroke="#000000" points="680.3023,-1195.7607 671.88,-1202.1884 682.4724,-1202.4158 680.3023,-1195.7607"/>
</g>
<!-- \\Yaseek\\YNO\\Core\\Exception\\RangeException -->
<g id="node25" class="node">
<title>\\Yaseek\\YNO\\Core\\Exception\\RangeException</title>
<polygon fill="none" stroke="#000000" points="922.9746,-1342 811.9746,-1342 811.9746,-1306 922.9746,-1306 922.9746,-1342"/>
<text text-anchor="middle" x="867.4746" y="-1321.2" font-family="Courier,monospace" font-size="11.00" fill="#000000">RangeException</text>
</g>
<!-- \\Yaseek\\YNO\\Core\\Exception\\RangeException&#45;&gt;\\Yaseek\\YNO\\Core\\Exception\\RuntimeException -->
<g id="edge22" class="edge">
<title>\\Yaseek\\YNO\\Core\\Exception\\RangeException&#45;&gt;\\Yaseek\\YNO\\Core\\Exception\\RuntimeException</title>
<path fill="none" stroke="#000000" d="M811.8646,-1310.5316C800.3676,-1306.8403 788.5471,-1302.3472 777.9746,-1297 742.2802,-1278.9471 741.8575,-1260.6755 705.9746,-1243 698.2389,-1239.1895 689.882,-1235.8441 681.4319,-1232.9262"/>
<polygon fill="none" stroke="#000000" points="682.4724,-1229.5842 671.88,-1229.8116 680.3023,-1236.2393 682.4724,-1229.5842"/>
</g>
<!-- \\Yaseek\\YNO\\Core\\Exception\\RuntimeException&#45;&gt;\\Yaseek\\YNO\\Core\\Exception -->
<g id="edge23" class="edge">
<title>\\Yaseek\\YNO\\Core\\Exception\\RuntimeException&#45;&gt;\\Yaseek\\YNO\\Core\\Exception</title>
<path fill="none" stroke="#000000" d="M546.4181,-1211.5013C468.831,-1205.9358 338.3662,-1196.5773 267.7487,-1191.5118"/>
<polygon fill="none" stroke="#000000" points="267.5865,-1187.9912 257.3617,-1190.7667 267.0856,-1194.9733 267.5865,-1187.9912"/>
</g>
<!-- \\Yaseek\\YNO\\Core\\Exception\\UnderflowException -->
<g id="node27" class="node">
<title>\\Yaseek\\YNO\\Core\\Exception\\UnderflowException</title>
<polygon fill="none" stroke="#000000" points="936.4746,-1288 798.4746,-1288 798.4746,-1252 936.4746,-1252 936.4746,-1288"/>
<text text-anchor="middle" x="867.4746" y="-1267.2" font-family="Courier,monospace" font-size="11.00" fill="#000000">UnderflowException</text>
</g>
<!-- \\Yaseek\\YNO\\Core\\Exception\\UnderflowException&#45;&gt;\\Yaseek\\YNO\\Core\\Exception\\RuntimeException -->
<g id="edge24" class="edge">
<title>\\Yaseek\\YNO\\Core\\Exception\\UnderflowException&#45;&gt;\\Yaseek\\YNO\\Core\\Exception\\RuntimeException</title>
<path fill="none" stroke="#000000" d="M798.2439,-1255.529C762.3138,-1248.0187 718.4333,-1238.8465 681.9894,-1231.2288"/>
<polygon fill="none" stroke="#000000" points="682.425,-1227.7443 671.9204,-1229.1241 680.9927,-1234.5962 682.425,-1227.7443"/>
</g>
<!-- \\Yaseek\\YNO\\Core\\Exception\\UnexpectedValueException -->
<g id="node28" class="node">
<title>\\Yaseek\\YNO\\Core\\Exception\\UnexpectedValueException</title>
<polygon fill="none" stroke="#000000" points="956.9746,-1234 777.9746,-1234 777.9746,-1198 956.9746,-1198 956.9746,-1234"/>
<text text-anchor="middle" x="867.4746" y="-1213.2" font-family="Courier,monospace" font-size="11.00" fill="#000000">UnexpectedValueException</text>
</g>
<!-- \\Yaseek\\YNO\\Core\\Exception\\UnexpectedValueException&#45;&gt;\\Yaseek\\YNO\\Core\\Exception\\RuntimeException -->
<g id="edge25" class="edge">
<title>\\Yaseek\\YNO\\Core\\Exception\\UnexpectedValueException&#45;&gt;\\Yaseek\\YNO\\Core\\Exception\\RuntimeException</title>
<path fill="none" stroke="#000000" d="M777.8444,-1216C746.5574,-1216 711.8452,-1216 682.0813,-1216"/>
<polygon fill="none" stroke="#000000" points="681.7735,-1212.5001 671.7735,-1216 681.7734,-1219.5001 681.7735,-1212.5001"/>
</g>
<!-- \\Yaseek\\YNO\\Core\\Helper\\Request -->
<g id="node29" class="node">
<title>\\Yaseek\\YNO\\Core\\Helper\\Request</title>
<polygon fill="none" stroke="#000000" points="899.4746,-992 835.4746,-992 835.4746,-956 899.4746,-956 899.4746,-992"/>
<text text-anchor="middle" x="867.4746" y="-971.2" font-family="Courier,monospace" font-size="11.00" fill="#000000">Request</text>
</g>
<!-- \\Yaseek\\YNO\\Core\\Helper\\Token -->
<g id="node30" class="node">
<title>\\Yaseek\\YNO\\Core\\Helper\\Token</title>
<polygon fill="none" stroke="#000000" points="894.4746,-938 840.4746,-938 840.4746,-902 894.4746,-902 894.4746,-938"/>
<text text-anchor="middle" x="867.4746" y="-917.2" font-family="Courier,monospace" font-size="11.00" fill="#000000">Token</text>
</g>
<!-- \\Yaseek\\YNO\\Core\\Logger\\Context -->
<g id="node31" class="node">
<title>\\Yaseek\\YNO\\Core\\Logger\\Context</title>
<polygon fill="none" stroke="#000000" points="899.4746,-858 835.4746,-858 835.4746,-822 899.4746,-822 899.4746,-858"/>
<text text-anchor="middle" x="867.4746" y="-837.2" font-family="Courier,monospace" font-size="11.00" fill="#000000">Context</text>
</g>
<!-- \\Yaseek\\YNO\\Core\\Session\\Database -->
<g id="node32" class="node">
<title>\\Yaseek\\YNO\\Core\\Session\\Database</title>
<polygon fill="none" stroke="#000000" points="902.9746,-516 831.9746,-516 831.9746,-480 902.9746,-480 902.9746,-516"/>
<text text-anchor="middle" x="867.4746" y="-495.2" font-family="Courier,monospace" font-size="11.00" fill="#000000">Database</text>
</g>
<!-- SessionHandlerInterface -->
<g id="node41" class="node">
<title>SessionHandlerInterface</title>
<ellipse fill="none" stroke="#000000" cx="609.1332" cy="-1902" rx="96.6831" ry="18"/>
<text text-anchor="middle" x="609.1332" y="-1898.3" font-family="Times,serif" font-size="14.00" fill="#c0c0c0">SessionHandlerInterface</text>
</g>
<!-- \\Yaseek\\YNO\\Core\\Session\\Database&#45;&gt;SessionHandlerInterface -->
<g id="edge27" class="edge">
<title>\\Yaseek\\YNO\\Core\\Session\\Database&#45;&gt;SessionHandlerInterface</title>
<path fill="none" stroke="#000000" stroke-dasharray="1,5" d="M831.6483,-497.2655C812.7479,-498.9268 790.8652,-504.4985 777.9746,-520 689.166,-626.7964 752.5193,-1637.1335 705.9746,-1768 690.8075,-1810.6445 657.5821,-1851.5954 634.2998,-1876.7592"/>
<polygon fill="none" stroke="#000000" points="631.7413,-1874.3707 627.4244,-1884.0462 636.8328,-1879.1746 631.7413,-1874.3707"/>
</g>
<!-- \\Yaseek\\YNO\\Core\\Database -->
<g id="node34" class="node">
<title>\\Yaseek\\YNO\\Core\\Database</title>
<polygon fill="none" stroke="#000000" points="902.9746,-750 831.9746,-750 831.9746,-714 902.9746,-714 902.9746,-750"/>
<text text-anchor="middle" x="867.4746" y="-729.2" font-family="Courier,monospace" font-size="11.00" fill="#000000">Database</text>
</g>
<!-- Exception -->
<g id="node40" class="node">
<title>Exception</title>
<ellipse fill="none" stroke="#000000" cx="62.1459" cy="-1188" rx="46.2923" ry="18"/>
<text text-anchor="middle" x="62.1459" y="-1184.3" font-family="Times,serif" font-size="14.00" fill="#c0c0c0">Exception</text>
</g>
<!-- \\Yaseek\\YNO\\Core\\Exception&#45;&gt;Exception -->
<g id="edge26" class="edge">
<title>\\Yaseek\\YNO\\Core\\Exception&#45;&gt;Exception</title>
<path fill="none" stroke="#000000" d="M180.0703,-1188C161.5465,-1188 139.0121,-1188 118.6242,-1188"/>
<polygon fill="none" stroke="#000000" points="118.5041,-1184.5001 108.5041,-1188 118.504,-1191.5001 118.5041,-1184.5001"/>
</g>
<!-- \\Yaseek\\YNO\\Core\\Helper -->
<g id="node36" class="node">
<title>\\Yaseek\\YNO\\Core\\Helper</title>
<polygon fill="none" stroke="#000000" points="895.9746,-696 838.9746,-696 838.9746,-660 895.9746,-660 895.9746,-696"/>
<text text-anchor="middle" x="867.4746" y="-675.2" font-family="Courier,monospace" font-size="11.00" fill="#000000">Helper</text>
</g>
<!-- \\Yaseek\\YNO\\Core\\Logger -->
<g id="node37" class="node">
<title>\\Yaseek\\YNO\\Core\\Logger</title>
<polygon fill="none" stroke="#000000" points="895.9746,-642 838.9746,-642 838.9746,-606 895.9746,-606 895.9746,-642"/>
<text text-anchor="middle" x="867.4746" y="-621.2" font-family="Courier,monospace" font-size="11.00" fill="#000000">Logger</text>
</g>
<!-- \\Yaseek\\YNO\\Core\\Twig -->
<g id="node39" class="node">
<title>\\Yaseek\\YNO\\Core\\Twig</title>
<polygon fill="none" stroke="#000000" points="894.4746,-804 840.4746,-804 840.4746,-768 894.4746,-768 894.4746,-804"/>
<text text-anchor="middle" x="867.4746" y="-783.2" font-family="Courier,monospace" font-size="11.00" fill="#000000">Twig</text>
</g>
<!-- Twig_Environment -->
<g id="node42" class="node">
<title>Twig_Environment</title>
<ellipse fill="none" stroke="#000000" cx="609.1332" cy="-1956" rx="79.8859" ry="18"/>
<text text-anchor="middle" x="609.1332" y="-1952.3" font-family="Times,serif" font-size="14.00" fill="#c0c0c0">Twig_Environment</text>
</g>
<!-- \\Yaseek\\YNO\\Core\\Twig&#45;&gt;Twig_Environment -->
<g id="edge28" class="edge">
<title>\\Yaseek\\YNO\\Core\\Twig&#45;&gt;Twig_Environment</title>
<path fill="none" stroke="#000000" d="M840.348,-785.4233C819.8791,-786.5822 792.8622,-791.8338 777.9746,-810 620.0297,-1002.7291 862.9627,-1735.4907 705.9746,-1929 701.2875,-1934.7776 695.4764,-1939.3797 689.0456,-1943.0377"/>
<polygon fill="none" stroke="#000000" points="687.4043,-1939.9438 679.9395,-1947.4622 690.4636,-1946.2399 687.4043,-1939.9438"/>
</g>
</g>
</svg>
