<?xml version="1.0" encoding="utf-8"?>
<svg version="1.1" id="Layer_1" xmlns="http://www.w3.org/2000/svg" xmlns:xlink="http://www.w3.org/1999/xlink" x="0px" y="0px"
	 width="180px" height="180px" viewBox="0 0 180 180" enable-background="new 0 0 180 180" xml:space="preserve">
<path fill="#E6E6E5" d="M138.67,41.637c-26.673-26.672-69.917-26.672-96.59,0c-26.673,26.673-26.673,69.918,0,96.592
	c26.673,26.672,69.917,26.672,96.59,0C165.344,111.555,165.344,68.31,138.67,41.637z M67.983,112.324
	c-12.366-12.367-12.366-32.417,0-44.783c12.367-12.367,32.417-12.367,44.784,0c12.365,12.366,12.365,32.416,0,44.783
	C100.4,124.689,80.35,124.689,67.983,112.324z"/>
<path fill="#CDCCCC" d="M60.799,138.229c-26.672-26.674-26.672-69.919,0-96.592c10.95-10.95,24.693-17.4,38.935-19.36
	c-20.45-2.813-41.932,3.637-57.655,19.36c-26.673,26.673-26.673,69.918,0,96.592c15.723,15.723,37.204,22.172,57.655,19.359
	C85.492,155.629,71.749,149.178,60.799,138.229z"/>
<path fill="#FFFFFF" d="M138.67,41.637c-14.182-14.181-33.047-20.822-51.615-19.923c16.358,0.791,32.484,7.432,44.976,19.923
	c26.674,26.673,26.674,69.918,0,96.592c-12.492,12.491-28.618,19.132-44.976,19.924c18.568,0.896,37.433-5.743,51.615-19.924
	C165.344,111.555,165.344,68.31,138.67,41.637z"/>
<g>
	<path fill="#EF4343" d="M146.059,49.989l-19.551,19.549v0.004l-5.807,5.803c-2.07,2.073-5.432,2.073-7.502,0l-8.236-8.237
		c-2.074-2.074-2.074-5.432,0-7.501l13.613-13.614l11.742-11.743c2.072-2.074,5.43-2.074,7.503,0l8.237,8.236
		C148.131,44.557,148.131,47.919,146.059,49.989z"/>
	<path fill="#EF4343" d="M137.82,145.616l8.238-8.238c2.072-2.071,2.072-5.431,0-7.503l-25.357-25.356
		c-2.072-2.071-5.431-2.071-7.502,0l-8.238,8.237c-2.072,2.071-2.072,5.432,0,7.502l25.357,25.358
		C132.391,147.688,135.748,147.688,137.82,145.616z"/>
</g>
<g>
	<path fill="#D83535" d="M126.508,69.539v0.004l-5.807,5.803c-2.07,2.073-5.434,2.073-7.502,0l-8.236-8.237
		c-2.074-2.074-2.074-5.432,0-7.501l13.613-13.614C118.533,46.263,116.463,59.495,126.508,69.539z"/>
	<path fill="#D83535" d="M126.508,110.328v-0.006l-5.807-5.802c-2.07-2.073-5.434-2.073-7.502,0l-8.236,8.235
		c-2.074,2.074-2.074,5.434,0,7.502l13.613,13.613C118.533,133.603,116.463,120.372,126.508,110.328z"/>
</g>
<g>
	<path fill="#EF4343" d="M75.79,120.26l-13.328,13.329l-12.029,12.028c-2.074,2.07-5.432,2.07-7.502,0l-8.24-8.24
		c-2.07-2.07-2.07-5.428,0-7.502l25.357-25.356c2.074-2.073,5.432-2.073,7.502,0l8.239,8.235
		C77.86,114.828,77.86,118.188,75.79,120.26z"/>
	<path fill="#EF4343" d="M75.79,67.109l-8.239,8.237c-2.07,2.073-5.428,2.073-7.502,0l-9.123-9.123L34.691,49.989
		c-2.07-2.07-2.07-5.433,0-7.502l8.24-8.236c2.07-2.074,5.428-2.074,7.502,0l12.029,12.028L75.79,59.608
		C77.86,61.678,77.86,65.036,75.79,67.109z"/>
</g>
<g>
	<path fill="#D83535" d="M34.691,49.989c-2.07-2.07-2.07-5.433,0-7.502l8.24-8.236c2.07-2.074,5.428-2.074,7.502,0l12.029,12.028
		c-5.07,6.085-8.916,12.841-11.537,19.944L34.691,49.989z"/>
	<path fill="#D83535" d="M50.925,113.641c2.621,7.107,6.467,13.863,11.537,19.948l-12.029,12.028c-2.074,2.07-5.432,2.07-7.502,0
		l-8.24-8.24c-2.07-2.07-2.07-5.428,0-7.502L50.925,113.641z"/>
</g>
<path fill="#010101" d="M163.844,65.791c-4.998-7.629-10.326-11.271-12.352-12.468c-0.631-1.051-1.291-2.088-1.98-3.111
	c1.725-3.128,1.268-7.147-1.383-9.795l-8.237-8.238c-1.554-1.555-3.622-2.412-5.821-2.412c-1.416,0-2.774,0.359-3.979,1.027
	c-5.602-3.771-11.694-6.715-18.145-8.759c-1.543-0.488-3.188,0.366-3.677,1.908c-0.489,1.542,0.365,3.188,1.906,3.677
	c5.446,1.726,10.614,4.15,15.408,7.222l-22.694,22.695c-0.033,0.033-0.061,0.069-0.094,0.102
	c-8.014-3.089-16.834-3.089-24.842,0.001c-0.033-0.033-0.061-0.07-0.094-0.103L55.164,34.838
	c13.063-8.377,28.612-11.805,44.172-9.663c1.601,0.221,3.08-0.9,3.301-2.502s-0.899-3.081-2.502-3.301
	c-17.487-2.407-34.969,1.646-49.478,11.419c-1.205-0.667-2.563-1.025-3.976-1.025c-2.2,0-4.268,0.856-5.823,2.412l-8.237,8.237
	c-1.556,1.554-2.412,3.622-2.412,5.822c0,1.415,0.358,2.772,1.025,3.977c-0.625,0.927-1.229,1.864-1.806,2.815l-0.082-0.168
	c-0.282,0.137-6.991,3.466-13.189,12.93C6.085,81.168,5,100.941,5.862,114.822c0.338,5.432,2.552,9.932,6.406,13.012
	c3.873,3.096,9.336,4.729,15.507,4.729c0.831,0,1.675-0.036,2.528-0.096c-0.35,2.476,0.417,5.081,2.317,6.981l8.238,8.238
	c1.555,1.555,3.623,2.411,5.823,2.411c1.416,0,2.773-0.358,3.978-1.027c0.098,0.065,0.196,0.134,0.293,0.199
	c2.887,7.198,13.003,26.096,39.423,26.096c26.421,0,36.536-18.897,39.423-26.096c0.098-0.065,0.195-0.132,0.293-0.198
	c1.205,0.668,2.563,1.026,3.979,1.026c2.199,0,4.266-0.856,5.821-2.411l8.237-8.238c1.889-1.889,2.658-4.473,2.324-6.935
	c0.596,0.028,1.188,0.049,1.771,0.049c6.173,0,11.636-1.635,15.509-4.729c3.854-3.08,6.068-7.58,6.406-13.012
	C175,100.941,173.914,81.168,163.844,65.791z M107.031,61.678l25.359-25.358c0.447-0.448,1.044-0.696,1.68-0.696
	c0.633,0,1.23,0.248,1.68,0.696l8.237,8.238c0.925,0.926,0.925,2.434,0,3.361l-25.358,25.357c-0.447,0.449-1.045,0.696-1.68,0.696
	c-0.634,0-1.231-0.247-1.68-0.696l-8.238-8.237c-0.448-0.448-0.695-1.045-0.695-1.68C106.336,62.724,106.583,62.126,107.031,61.678z
	 M100.494,63.037c-0.004,0.108-0.017,0.214-0.017,0.322c0,2.199,0.856,4.267,2.413,5.822l8.237,8.238
	c1.556,1.555,3.622,2.412,5.821,2.412c0.109,0,0.215-0.012,0.322-0.016c2.465,6.537,2.463,13.701-0.004,20.237
	c-0.105-0.004-0.211-0.016-0.318-0.016c-2.199,0-4.266,0.856-5.822,2.411l-8.236,8.238c-1.557,1.555-2.413,3.623-2.413,5.822
	c0,0.107,0.011,0.213,0.016,0.318c-6.538,2.467-13.704,2.469-20.241,0.002c0.085-2.213-0.706-4.455-2.392-6.142l-8.238-8.237
	c-1.555-1.556-3.623-2.412-5.822-2.412c-0.108,0-0.213,0.011-0.321,0.015c-2.465-6.538-2.465-13.704,0.001-20.237
	c0.106,0.004,0.212,0.016,0.319,0.016c2.199,0,4.267-0.856,5.822-2.412l8.238-8.238c1.686-1.686,2.478-3.927,2.392-6.141
	C86.788,60.572,93.955,60.571,100.494,63.037z M35.283,125.143c-6.734-10.496-10.278-22.596-10.278-35.211
	c-0.001-12.616,3.543-24.716,10.276-35.212l22.698,22.698c0.033,0.033,0.07,0.062,0.104,0.093c-3.09,8.009-3.09,16.829-0.001,24.843
	c-0.033,0.033-0.069,0.061-0.102,0.094L35.283,125.143z M36.763,44.558l8.238-8.238c0.448-0.448,1.046-0.696,1.68-0.696
	s1.231,0.248,1.68,0.696l25.357,25.357c0.927,0.927,0.927,2.435,0,3.361l-8.238,8.238c-0.448,0.449-1.045,0.696-1.68,0.696
	s-1.231-0.247-1.68-0.696L36.763,47.918c-0.448-0.449-0.696-1.045-0.696-1.68C36.067,45.604,36.313,45.007,36.763,44.558z
	 M15.925,123.258c-2.563-2.048-3.98-5.008-4.217-8.799c-0.798-12.845,0.136-31.094,9.112-45.093c0.82-1.279,1.651-2.429,2.468-3.461
	c-2.731,7.631-4.141,15.727-4.141,24.027c0,13.091,3.504,25.674,10.178,36.727C23.87,126.93,19.019,125.73,15.925,123.258z
	 M46.681,144.24c-0.635,0-1.232-0.247-1.681-0.695l-8.238-8.238c-0.926-0.927-0.926-2.434,0-3.36L62.12,106.59
	c0.449-0.449,1.046-0.696,1.68-0.696c0.635,0,1.231,0.247,1.68,0.696l8.238,8.237c0.926,0.925,0.926,2.433,0,3.36l-4.542,4.541
	c-1.145,1.145-1.145,2.998-0.001,4.143c1.145,1.144,3,1.144,4.143,0l4.543-4.543c0.033-0.032,0.06-0.068,0.092-0.102
	c4.004,1.543,8.21,2.319,12.417,2.319c4.208,0,8.419-0.776,12.425-2.321c0.033,0.033,0.061,0.07,0.096,0.104l22.695,22.696
	c-10.494,6.734-22.595,10.277-35.209,10.277c-12.616,0-24.715-3.543-35.211-10.277l12.1-12.102c1.144-1.144,1.144-2.998,0-4.142
	c-1.145-1.144-2.999-1.144-4.143,0l-14.762,14.763C47.912,143.993,47.315,144.24,46.681,144.24z M90.376,169.509
	c-16.004,0-25.061-7.993-29.896-14.896c9.292,4.308,19.432,6.547,29.896,6.547s20.602-2.239,29.895-6.547
	C115.438,161.516,106.381,169.509,90.376,169.509z M143.987,135.307l-8.237,8.238l0,0c-0.449,0.448-1.047,0.695-1.68,0.695
	c-0.636,0-1.232-0.247-1.68-0.695l-25.359-25.357c-0.448-0.449-0.696-1.046-0.696-1.68c0-0.635,0.247-1.231,0.696-1.681l8.238-8.237
	c0.448-0.449,1.045-0.696,1.68-0.696s1.231,0.247,1.68,0.696l25.357,25.356C144.912,132.873,144.912,134.38,143.987,135.307z
	 M168.291,114.459c-0.234,3.791-1.653,6.751-4.216,8.799c-2.954,2.361-7.512,3.559-12.665,3.426
	c3.01-4.988,5.389-10.324,7.096-15.925c0.473-1.548-0.4-3.184-1.947-3.655c-1.547-0.471-3.184,0.4-3.656,1.947
	c-1.736,5.697-4.233,11.096-7.434,16.092l-22.696-22.695c-0.033-0.033-0.069-0.063-0.104-0.096c3.09-8.01,3.092-16.831,0.002-24.841
	c0.033-0.032,0.07-0.06,0.103-0.093l22.696-22.696c8.488,13.232,11.889,28.979,9.586,44.726c-0.233,1.601,0.873,3.088,2.475,3.322
	c0.145,0.021,0.287,0.031,0.428,0.031c1.43,0,2.681-1.049,2.895-2.506c1.621-11.086,0.644-22.173-2.746-32.523
	c0.359,0.509,0.717,1.039,1.074,1.595C168.156,83.365,169.09,101.614,168.291,114.459z"/>
</svg>
